<?xml version="1.0" encoding="iso-8859-1"?>
<!-- Generator: Adobe Illustrator 19.0.0, SVG Export Plug-In . SVG Version: 6.00 Build 0)  -->
<svg xmlns="http://www.w3.org/2000/svg" xmlns:xlink="http://www.w3.org/1999/xlink" version="1.1" id="Capa_1" x="0px" y="0px" viewBox="0 0 480 480" style="enable-background:new 0 0 480 480;" xml:space="preserve" width="512px" height="512px">
<g>
	<g>
		<path d="M240,152.035c-48.601,0-88,39.399-88,88c0.057,48.577,39.423,87.943,88,88c48.601,0,88-39.399,88-88    S288.601,152.035,240,152.035z M240,312.035c-39.765,0-72-32.236-72-72c0.044-39.746,32.254-71.956,72-72    c39.765,0,72,32.235,72,72C312,279.799,279.765,312.035,240,312.035z" fill="#FFFFFF"/>
	</g>
</g>
<g>
	<g>
		<path d="M354.704,216.035c-3.334-3.009-6.099-6.594-8.16-10.584c-0.763-4.661-0.663-9.423,0.296-14.048    c2.355-8.955,1.178-18.473-3.288-26.584c-6.373-6.807-15.122-10.898-24.432-11.424c-4.636-0.51-9.14-1.866-13.288-4    c-3.239-3.255-5.861-7.072-7.736-11.264c-3.376-8.776-10.019-15.903-18.536-19.888c-8.996-1.71-18.306,0.106-26,5.072    c-4.186,2.404-8.785,4.005-13.56,4.72c-4.786-0.704-9.399-2.297-13.6-4.696c-7.702-4.945-17.004-6.76-26-5.072    c-8.519,3.986-15.162,11.117-18.536,19.896c-1.875,4.19-4.497,8.004-7.736,11.256c-4.148,2.134-8.651,3.49-13.288,4    c-9.306,0.514-18.056,4.594-24.432,11.392c-4.466,8.111-5.643,17.629-3.288,26.584c0.959,4.625,1.059,9.387,0.296,14.048    c-2.049,3.99-4.799,7.578-8.12,10.592c-7.373,5.976-12.14,14.58-13.296,24c1.156,9.42,5.923,18.024,13.296,24    c3.334,3.009,6.099,6.594,8.16,10.584c0.763,4.661,0.663,9.423-0.296,14.048c-2.364,8.965-1.186,18.496,3.288,26.616    c6.378,6.795,15.127,10.874,24.432,11.392c4.636,0.51,9.14,1.866,13.288,4c3.239,3.255,5.861,7.072,7.736,11.264    c3.376,8.776,10.019,15.904,18.536,19.888c2.036,0.659,4.164,0.988,6.304,0.976c6.925-0.57,13.644-2.633,19.696-6.048    c4.186-2.404,8.785-4.005,13.56-4.72c4.786,0.704,9.399,2.296,13.6,4.696c7.707,4.934,17.004,6.747,26,5.072    c8.519-3.986,15.162-11.117,18.536-19.896c1.875-4.19,4.497-8.004,7.736-11.256c4.148-2.134,8.652-3.489,13.288-4    c9.306-0.514,18.056-4.594,24.432-11.392c4.466-8.111,5.643-17.629,3.288-26.584c-0.959-4.625-1.059-9.387-0.296-14.048    c2.049-3.99,4.799-7.578,8.12-10.592c7.373-5.976,12.14-14.58,13.296-24C366.844,230.614,362.077,222.011,354.704,216.035z     M343.096,253.05c-5.104,4.619-9.123,10.309-11.768,16.664c-1.657,6.892-1.78,14.063-0.36,21.008    c1.296,4.982,1.177,10.226-0.344,15.144c-1.992,2.736-8.624,4-14.464,5.08c-6.997,0.772-13.737,3.083-19.736,6.768    c-5.295,4.539-9.524,10.191-12.384,16.552c-2.864,5.272-6.112,11.2-9.416,12.312c-3.008,0.952-8.968-1.84-14.24-4.32    c-6.255-3.548-13.214-5.673-20.384-6.224c-7.17,0.551-14.129,2.676-20.384,6.224c-5.264,2.48-11.2,5.36-14.24,4.32    c-3.304-1.072-6.552-7.04-9.416-12.312c-2.86-6.361-7.089-12.013-12.384-16.552c-6-3.681-12.739-5.992-19.736-6.768    c-5.84-1.096-12.464-2.344-14.456-5.08c-1.529-4.919-1.65-10.167-0.352-15.152c1.42-6.942,1.297-14.111-0.36-21    c-2.645-6.355-6.664-12.045-11.768-16.664c-4.176-4.392-8.904-9.376-8.904-13.016s4.728-8.624,8.904-13.016    c5.104-4.619,9.123-10.309,11.768-16.664c1.657-6.892,1.78-14.063,0.36-21.008c-1.296-4.982-1.177-10.226,0.344-15.144    c1.992-2.736,8.624-4,14.464-5.08c6.997-0.772,13.737-3.083,19.736-6.768c5.31-4.535,9.552-10.187,12.424-16.552    c2.864-5.264,6.112-11.24,9.416-12.312c0.461-0.14,0.942-0.208,1.424-0.2c4.499,0.743,8.832,2.273,12.8,4.52    c6.247,3.544,13.199,5.669,20.36,6.224c7.17-0.551,14.129-2.676,20.384-6.224c5.264-2.472,11.2-5.32,14.24-4.32    c3.304,1.072,6.552,7.048,9.416,12.312c2.86,6.361,7.089,12.013,12.384,16.552c6,3.681,12.739,5.992,19.736,6.768    c5.84,1.096,12.464,2.344,14.456,5.08c1.529,4.919,1.65,10.167,0.352,15.152c-1.42,6.942-1.297,14.111,0.36,21    c2.645,6.355,6.664,12.045,11.768,16.664c4.176,4.392,8.904,9.376,8.904,13.016S347.272,248.658,343.096,253.05z" fill="#FFFFFF"/>
	</g>
</g>
<g>
	<g>
		<path d="M371.171,122.694C337.784,85.37,290.078,64.036,240,64.035c-97.202,0.078-175.937,78.939-175.859,176.141    s78.939,175.937,176.141,175.859c8.317-0.007,16.622-0.603,24.855-1.784l-2.272-15.84    c-87.482,12.655-168.658-48.004-181.313-135.486S129.555,94.267,217.037,81.612c87.482-12.655,168.658,48.004,181.313,135.486    c7.676,53.063-11.728,106.444-51.686,142.193l10.672,11.92C429.783,306.405,435.977,195.14,371.171,122.694z" fill="#FFFFFF"/>
	</g>
</g>
<g>
	<g>
		<path d="M460.168,198.579l-15.728,2.944c21.164,113.017-53.298,221.792-166.315,242.955c-12.572,2.354-25.334,3.545-38.125,3.557    C125.089,448.001,31.963,354.82,31.997,239.909c0.01-34.965,8.832-69.364,25.651-100.019l-14.016-7.712    c-59.506,108.46-19.821,244.624,88.64,304.13s244.624,19.821,304.13-88.64C461.337,302.219,469.737,249.528,460.168,198.579z" fill="#FFFFFF"/>
	</g>
</g>
<g>
	<g>
		<path d="M240,16.035c-41.45-0.032-82.093,11.457-117.392,33.184l8.392,13.6c85.736-52.694,196.895-36.475,264,38.52l11.928-10.672    C364.409,43.212,303.716,16.077,240,16.035z" fill="#FFFFFF"/>
	</g>
</g>
<g>
	<g>
		<path d="M80,48.035c-22.091,0-40,17.909-40,40c0.026,22.08,17.92,39.974,40,40c22.091,0,40-17.909,40-40S102.091,48.035,80,48.035    z M80,112.035c-13.255,0-24-10.745-24-24s10.745-24,24-24s24,10.745,24,24S93.255,112.035,80,112.035z" fill="#FFFFFF"/>
	</g>
</g>
<g>
	<g>
		<path d="M312,360.035c-17.673,0-32,14.327-32,32c0,17.673,14.327,32,32,32c17.673,0,32-14.327,32-32    C344,374.361,329.673,360.035,312,360.035z M312,408.035c-8.837,0-16-7.163-16-16s7.163-16,16-16s16,7.163,16,16    S320.837,408.035,312,408.035z" fill="#FFFFFF"/>
	</g>
</g>
<g>
	<g>
		<path d="M440,104.035c-22.091,0-40,17.909-40,40s17.909,40,40,40c22.091,0,40-17.909,40-40    C479.974,121.954,462.08,104.061,440,104.035z M440,168.035c-13.255,0-24-10.745-24-24s10.745-24,24-24s24,10.745,24,24    S453.255,168.035,440,168.035z" fill="#FFFFFF"/>
	</g>
</g>
<g>
	<g>
		<rect x="400" y="16.035" width="16" height="16" fill="#FFFFFF"/>
	</g>
</g>
<g>
	<g>
		<rect x="432" y="32.035" width="16" height="16" fill="#FFFFFF"/>
	</g>
</g>
<g>
	<g>
		<rect y="416.035" width="16" height="16" fill="#FFFFFF"/>
	</g>
</g>
<g>
	<g>
		<rect x="32" y="432.035" width="16" height="16" fill="#FFFFFF"/>
	</g>
</g>
<g>
	<g>
		<rect x="416" y="416.035" width="16" height="16" fill="#FFFFFF"/>
	</g>
</g>
<g>
	<g>
		<rect x="448" y="432.035" width="16" height="16" fill="#FFFFFF"/>
	</g>
</g>
<g>
</g>
<g>
</g>
<g>
</g>
<g>
</g>
<g>
</g>
<g>
</g>
<g>
</g>
<g>
</g>
<g>
</g>
<g>
</g>
<g>
</g>
<g>
</g>
<g>
</g>
<g>
</g>
<g>
</g>
</svg>
