<svg height="511pt" viewBox="0 0 511.99993 511" width="511pt" xmlns="http://www.w3.org/2000/svg"><path d="m482.300781 376.652344c-27.859375 52.476562-73.5 94.066406-128.902343 116.742187-31.015626 12.703125-64.171876 19.058594-97.398438 18.957031-45.488281-.121093-91.097656-12.339843-131.582031-36.933593-35.480469-21.535157-65.804688-51.820313-87.492188-88.445313-108.632812-183.480468 39.855469-385.546875 219.074219-386.46875 44.136719-.234375 90.140625 11.742188 134.625 39.195313 41.628906 25.707031 75.324219 63.023437 96.546875 107.457031 34.019531 71.203125 33.722656 156.839844-4.871094 229.496094zm0 0" fill="#fcf2b6"/><path d="m482.300781 376.652344c-27.859375 52.476562-73.5 94.066406-128.902343 116.742187-31.015626 12.703125-64.171876 19.058594-97.398438 18.957031v-511.847656c44.136719-.234375 90.140625 11.742188 134.625 39.195313 41.628906 25.707031 75.324219 63.023437 96.546875 107.457031 34.019531 71.203125 33.722656 156.839844-4.871094 229.496094zm0 0" fill="#ffe89c"/><path d="m286.078125 111.484375c0 20.476563-16.597656 37.078125-37.074219 37.078125-20.476562 0-37.078125-16.601562-37.078125-37.078125 0-20.472656 16.601563-37.074219 37.078125-37.074219 20.476563 0 37.074219 16.601563 37.074219 37.074219zm0 0" fill="#ffde91"/><path d="m286.082031 111.480469c0 18.085937-12.949219 33.15625-30.082031 36.425781v-72.839844c17.132812 3.269532 30.082031 18.328125 30.082031 36.414063zm0 0" fill="#fad17f"/><path d="m124.417969 475.417969c-34.796875-21.113281-65.40625-51.140625-87.492188-88.445313 23.632813-17.699218 56.765625-16.605468 79.210938 3.257813 24.832031 21.980469 28.171875 59.257812 8.28125 85.1875zm0 0" fill="#ffde91"/><g fill="#fad17f"><path d="m390.621094 39.703125c41.636718 25.699219 75.328125 63.023437 96.554687 107.453125-30.878906 17.523438-71.136719 10.746094-94.3125-18.371094-20.773437-26.097656-21.28125-62.570312-2.242187-89.082031zm0 0"/><path d="m369.207031 374.46875c33.113281-27.003906 80.984375-26.125 113.09375 2.179688-27.863281 52.476562-73.5 94.066406-128.898437 116.742187-26.828125-37.257813-20.332032-89.453125 15.804687-118.921875zm0 0"/><path d="m364.25 286.570312c0 20.457032-16.585938 37.042969-37.046875 37.042969-20.457031 0-37.042969-16.585937-37.042969-37.042969 0-20.460937 16.585938-37.046874 37.042969-37.046874 20.460937 0 37.046875 16.585937 37.046875 37.046874zm0 0"/></g><path d="m187.101562 238.273438c0 34.6875-28.121093 62.804687-62.804687 62.804687-34.6875 0-62.804687-28.117187-62.804687-62.804687s28.117187-62.804688 62.804687-62.804688c34.683594 0 62.804687 28.117188 62.804687 62.804688zm0 0" fill="#ffde91"/></svg>