<?xml version="1.0"?>
<svg xmlns="http://www.w3.org/2000/svg" height="512px" version="1.1" viewBox="0 1 879.99807 879" width="512px" class=""><g><g id="surface1">
<path d="M 691.773438 4.792969 C 686.046875 -0.933594 676.757812 -0.933594 671.035156 4.792969 L 533.089844 142.765625 C 527.367188 148.492188 527.367188 157.773438 533.089844 163.5 L 614.683594 245.105469 L 566.460938 293.335938 L 450.371094 177.226562 C 425.589844 152.46875 385.433594 152.46875 360.65625 177.226562 L 314.675781 223.210938 L 176.734375 361.152344 C 151.984375 385.941406 151.984375 426.082031 176.734375 450.863281 L 292.808594 566.957031 L 244.582031 615.179688 L 162.980469 533.585938 C 157.246094 527.867188 147.96875 527.867188 142.238281 533.585938 L 4.289062 671.535156 C -1.429688 677.253906 -1.429688 686.542969 4.289062 692.265625 L 188.230469 876.207031 C 193.957031 881.925781 203.242188 881.925781 208.972656 876.207031 L 346.835938 738.261719 C 352.5625 732.539062 352.5625 723.253906 346.835938 717.527344 L 265.320312 635.917969 L 313.539062 587.699219 L 429.628906 703.765625 C 454.417969 728.503906 494.558594 728.503906 519.347656 703.765625 L 565.328125 657.789062 L 657.289062 565.828125 L 703.273438 519.851562 C 728.015625 495.0625 728.015625 454.917969 703.273438 430.132812 L 587.195312 314.042969 L 635.425781 265.820312 L 717.027344 347.410156 C 722.75 353.136719 732.039062 353.136719 737.761719 347.410156 L 875.707031 209.542969 C 881.429688 203.816406 881.429688 194.527344 875.707031 188.804688 Z M 223.894531 635.917969 L 198.65625 661.160156 L 173.421875 635.933594 L 198.605469 610.632812 Z M 198.65625 702.652344 L 223.886719 727.878906 L 198.585938 753.136719 L 173.34375 727.972656 Z M 152.660156 707.160156 L 127.359375 681.917969 L 152.617188 656.675781 L 177.84375 681.902344 Z M 152.660156 564.695312 L 177.917969 589.9375 L 152.679688 615.195312 L 127.421875 589.9375 Z M 106.625 610.632812 L 131.882812 635.890625 L 106.625 661.179688 L 81.378906 635.917969 Z M 35.402344 681.902344 L 60.648438 656.660156 L 85.886719 681.917969 L 60.648438 707.144531 Z M 81.378906 727.878906 L 106.617188 702.652344 L 131.863281 727.972656 L 106.636719 753.195312 Z M 127.378906 773.859375 L 152.605469 748.632812 L 177.84375 773.878906 L 152.617188 799.117188 Z M 198.597656 845.09375 L 173.355469 819.859375 L 198.585938 794.609375 L 223.839844 819.859375 Z M 244.582031 799.117188 L 219.324219 773.878906 L 244.5625 748.621094 L 269.863281 773.878906 Z M 315.804688 727.972656 L 290.5625 753.210938 L 265.304688 727.953125 L 290.5625 702.710938 Z M 269.863281 681.902344 L 244.5625 707.140625 L 219.335938 681.902344 L 244.578125 656.660156 Z M 381.4375 197.890625 C 394.765625 184.597656 416.34375 184.597656 429.679688 197.890625 L 545.761719 313.96875 L 520.480469 339.296875 L 415.859375 234.683594 C 410.132812 228.953125 400.847656 228.953125 395.117188 234.683594 L 371.070312 258.820312 L 345.898438 233.652344 Z M 360.65625 381.832031 L 419.316406 440.5 L 359.601562 500.222656 L 265.320312 406.003906 L 289.429688 381.832031 L 405.441406 265.816406 L 430.699219 291.058594 L 360.65625 361.152344 C 354.925781 366.878906 354.925781 376.164062 360.65625 381.890625 Z M 440.003906 461.234375 L 498.664062 519.90625 C 504.394531 525.625 513.675781 525.625 519.40625 519.90625 L 589.5 449.796875 L 614.738281 475.054688 L 590.570312 499.167969 L 498.664062 591.066406 L 474.492188 615.179688 L 380.273438 520.964844 Z M 508.9375 488.742188 L 391.761719 371.566406 L 451.5 311.84375 L 568.703125 429.050781 Z M 312.402344 266.929688 C 319.371094 260 330.640625 260 337.609375 266.929688 C 344.582031 273.902344 344.582031 285.203125 337.613281 292.175781 C 330.644531 299.148438 319.34375 299.148438 312.371094 292.175781 C 305.398438 285.203125 305.398438 273.902344 312.371094 266.933594 L 312.371094 266.929688 Z M 266.433594 312.898438 C 273.402344 305.921875 284.703125 305.921875 291.679688 312.898438 C 298.644531 319.863281 298.644531 331.164062 291.679688 338.136719 C 284.703125 345.109375 273.402344 345.109375 266.433594 338.136719 C 259.472656 331.164062 259.472656 319.871094 266.433594 312.898438 Z M 197.5 430.105469 C 184.214844 416.769531 184.214844 395.195312 197.5 381.859375 L 233.109375 346.25 L 245.691406 358.835938 L 258.28125 371.417969 L 234.164062 395.535156 C 228.441406 401.253906 228.441406 410.542969 234.164062 416.265625 L 338.796875 520.957031 L 313.539062 546.214844 Z M 498.664062 683.03125 C 485.328125 696.316406 463.765625 696.316406 450.425781 683.03125 L 334.34375 566.957031 L 359.539062 541.699219 L 464.128906 646.285156 C 469.855469 652.015625 479.140625 652.015625 484.871094 646.285156 L 508.9375 622.175781 L 521.515625 634.761719 L 534.101562 647.339844 Z M 567.605469 614.09375 C 560.628906 621.035156 549.363281 621.035156 542.386719 614.09375 C 535.417969 607.121094 535.417969 595.820312 542.386719 588.855469 C 549.359375 581.882812 560.65625 581.882812 567.628906 588.851562 C 574.601562 595.820312 574.601562 607.121094 567.628906 614.09375 Z M 613.566406 568.105469 C 606.59375 575.066406 595.308594 575.050781 588.347656 568.085938 C 581.386719 561.113281 581.390625 549.816406 588.363281 542.855469 C 595.324219 535.910156 606.605469 535.910156 613.566406 542.855469 C 620.527344 549.828125 620.527344 561.125 613.566406 568.105469 Z M 682.503906 450.898438 C 695.785156 464.234375 695.785156 485.800781 682.503906 499.136719 L 646.890625 534.742188 L 634.308594 522.164062 L 621.722656 509.578125 L 645.832031 485.46875 C 651.5625 479.738281 651.5625 470.453125 645.832031 464.730469 L 599.875 418.675781 L 541.277344 360.003906 L 566.511719 334.769531 Z M 798.589844 153.160156 L 773.351562 178.390625 L 748.105469 153.148438 L 773.332031 127.917969 Z M 727.464844 173.84375 L 752.714844 199.082031 L 727.457031 224.320312 L 702.226562 199.09375 Z M 681.476562 178.339844 L 656.25 153.113281 L 681.488281 127.859375 L 706.734375 153.101562 Z M 752.695312 107.132812 L 727.464844 132.363281 L 702.15625 107.125 L 727.382812 81.882812 Z M 681.402344 35.898438 L 706.640625 61.140625 L 681.414062 86.382812 L 656.15625 61.140625 Z M 635.425781 81.878906 L 660.671875 107.125 L 635.433594 132.382812 L 610.132812 107.125 Z M 564.199219 153.101562 L 589.4375 127.859375 L 614.695312 153.121094 L 589.4375 178.359375 Z M 610.132812 199.101562 L 635.390625 173.855469 L 660.617188 199.101562 L 635.382812 224.339844 Z M 656.113281 245.082031 L 681.359375 219.832031 L 706.597656 245.0625 L 681.402344 270.367188 Z M 727.464844 316.296875 L 702.207031 291.058594 L 727.457031 265.800781 L 752.714844 291.058594 Z M 773.375 270.363281 L 748.121094 245.105469 L 773.375 219.867188 L 798.617188 245.125 Z M 819.359375 224.382812 L 794.117188 199.082031 L 819.359375 173.855469 L 844.597656 199.09375 Z M 819.359375 224.382812 " data-original="#000000" class="active-path" data-old_color="#40477a" fill="#40477a"/>
</g></g> </svg>
